<?xml version="1.0" encoding="utf-8"?>
<!-- Generator: Adobe Illustrator 26.5.0, SVG Export Plug-In . SVG Version: 6.00 Build 0)  -->
<svg version="1.1" id="Capa_1" xmlns="http://www.w3.org/2000/svg" xmlns:xlink="http://www.w3.org/1999/xlink" x="0px" y="0px"
	 viewBox="0 0 57 28" style="enable-background:new 0 0 57 28;" xml:space="preserve">
<style type="text/css">
	.st0{fill:#C62320;}
</style>
<g>
	<polygon class="st0" points="37.34,15.39 39.17,15.39 38.25,12.43 	"/>
	<path class="st0" d="M0,0v28h57V0H0z M17.96,11.79v5.95c0,0.46-0.37,0.83-0.83,0.83h-1.94v-4.71l-3.32,2.49l-3.32-2.49v4.71H6.61
		c-0.46,0-0.83-0.37-0.83-0.83v-5.95v-1.11c0-1.03,1.17-1.61,1.99-1l0.78,0.58l3.32,2.49l3.32-2.49l0.78-0.58
		c0.82-0.62,1.99-0.03,1.99,1V11.79z M33.41,18.57h-2.06v-1.99l0.2-4.08l-2.06,6.07h-1.36l-2.07-6.08l0.2,4.08v1.99H24.2v-8.53h2.7
		l1.9,5.94l1.9-5.94h2.71V18.57z M40.17,18.57l-0.5-1.59h-2.82l-0.49,1.59h-2.2l3.13-8.53h1.93l3.15,8.53H40.17z M45.19,18.57h-2.05
		v-8.53h2.05V18.57z M52.25,18.57h-5.64v-8.53h2.06v6.95h3.58V18.57z"/>
</g>
</svg>
